<?xml version="1.0" standalone="no"?>
<!DOCTYPE svg PUBLIC "-//W3C//DTD SVG 20010904//EN"
 "http://www.w3.org/TR/2001/REC-SVG-20010904/DTD/svg10.dtd">
<svg version="1.0" xmlns="http://www.w3.org/2000/svg"
 width="430.000000pt" height="430.000000pt" viewBox="0 0 430.000000 430.000000"
 preserveAspectRatio="xMidYMid meet">
<metadata>
Created by potrace 1.14, written by Peter Selinger 2001-2017
</metadata>
<g transform="translate(0.000000,430.000000) scale(0.100000,-0.100000)"
fill="#000000" stroke="none">
<path d="M1950 4235 c-8 -2 -64 -11 -125 -20 -122 -18 -139 -22 -275 -64 -226
-69 -459 -177 -602 -277 -26 -19 -50 -34 -53 -34 -16 0 -145 -111 -260 -223
-122 -120 -157 -161 -239 -279 -18 -26 -35 -45 -38 -43 -3 3 -5 -1 -5 -8 0 -6
-23 -48 -50 -92 -48 -76 -156 -309 -168 -360 -2 -5 -17 -55 -34 -110 -66 -213
-97 -550 -72 -780 28 -257 109 -537 214 -745 111 -219 221 -371 394 -548 57
-59 103 -110 103 -114 0 -4 7 -8 15 -8 8 0 32 -15 52 -33 84 -74 288 -194 443
-262 148 -65 173 -74 345 -123 197 -57 405 -78 640 -66 88 4 179 8 202 8 22 1
39 4 37 7 -2 4 18 9 44 13 25 3 101 20 168 37 67 16 125 29 130 28 20 -3 35 2
29 11 -8 13 38 24 64 15 15 -4 19 -3 16 7 -3 9 21 24 73 46 42 18 85 34 93 35
9 2 23 10 32 19 10 10 26 14 39 11 19 -4 20 -3 8 6 -13 10 -13 11 0 12 8 1 25
1 38 1 12 -1 20 3 17 8 -6 9 57 62 71 59 27 -5 73 15 78 34 3 12 8 18 12 14 4
-4 14 2 23 12 9 10 26 17 39 16 12 -1 22 3 22 8 0 5 11 2 23 -6 23 -15 24 -15
19 9 -7 37 6 77 23 70 8 -3 14 0 12 6 -1 6 8 17 21 23 13 7 22 14 20 16 -1 2
5 15 15 29 9 13 17 21 17 17 0 -4 6 -2 14 5 8 7 12 16 10 19 -5 9 53 59 60 52
3 -4 6 1 6 10 0 8 9 19 20 22 11 3 20 11 20 16 0 5 12 22 28 38 33 34 67 75
64 79 -9 10 1 12 13 2 20 -17 29 -7 16 18 -12 22 -5 33 15 25 8 -3 15 0 15 6
1 6 3 16 4 21 1 6 3 17 4 25 0 8 10 24 20 34 11 11 29 39 40 63 11 24 22 42
25 41 3 -2 6 0 5 3 0 3 9 14 21 24 12 10 20 21 20 25 -3 9 73 159 82 163 4 2
3 12 -2 23 -8 14 -7 19 1 19 7 0 9 3 6 6 -3 4 -1 16 5 28 7 11 13 28 13 36 3
27 17 60 26 60 5 0 8 3 7 8 -1 4 3 16 9 27 6 11 11 39 11 62 1 22 6 61 12 85
42 154 63 507 41 698 -34 290 -128 578 -278 845 -33 58 -126 186 -192 263 -25
30 -45 61 -44 70 1 10 0 12 -3 6 -2 -6 -39 23 -82 65 -42 42 -96 92 -119 111
-23 18 -39 38 -36 43 3 6 1 7 -4 4 -6 -4 -30 8 -54 26 -75 57 -175 124 -219
149 -74 40 -80 45 -72 53 4 5 1 5 -6 1 -6 -4 -33 4 -60 18 -95 50 -210 93
-433 162 -49 16 -106 26 -268 49 -90 13 -382 19 -431 10z"/>
<path d="M765 3790 c3 -5 8 -10 11 -10 2 0 4 5 4 10 0 6 -5 10 -11 10 -5 0 -7
-4 -4 -10z"/>
</g>
</svg>
